<?xml version="1.0" encoding="UTF-8" standalone="no"?>
<svg width="20px" height="21px" viewBox="0 0 20 21" version="1.1" xmlns="http://www.w3.org/2000/svg" xmlns:xlink="http://www.w3.org/1999/xlink" xmlns:sketch="http://www.bohemiancoding.com/sketch/ns">
    <!-- Generator: Sketch 3.3.3 (12072) - http://www.bohemiancoding.com/sketch -->
    <title>“</title>
    <desc>Created with Sketch.</desc>
    <defs></defs>
    <g id="Page-1" stroke="none" stroke-width="1" fill="none" fill-rule="evenodd" sketch:type="MSPage">
        <g id="Artboard-1" sketch:type="MSArtboardGroup" transform="translate(-630.000000, -1791.000000)" fill="#798FA2">
            <path d="M630.32,1811.32 L637.04,1811.32 L637.04,1802.84 L633.68,1802.84 C633.626666,1802.2 633.666666,1801.49334 633.8,1800.72 C633.933334,1799.94666 634.159998,1799.2 634.48,1798.48 C634.800002,1797.76 635.199998,1797.12 635.68,1796.56 C636.160002,1796 636.746663,1795.58667 637.44,1795.32 L637.44,1791.88 C636.266661,1792.2 635.226671,1792.73333 634.32,1793.48 C633.413329,1794.22667 632.66667,1795.09333 632.08,1796.08 C631.49333,1797.06667 631.053335,1798.13333 630.76,1799.28 C630.466665,1800.42667 630.32,1801.58666 630.32,1802.76 L630.32,1811.32 Z M642.64,1811.32 L649.36,1811.32 L649.36,1802.84 L646,1802.84 C645.946666,1802.2 645.986666,1801.49334 646.12,1800.72 C646.253334,1799.94666 646.479998,1799.2 646.8,1798.48 C647.120002,1797.76 647.519998,1797.12 648,1796.56 C648.480002,1796 649.066663,1795.58667 649.76,1795.32 L649.76,1791.88 C648.586661,1792.2 647.546671,1792.73333 646.64,1793.48 C645.733329,1794.22667 644.98667,1795.09333 644.4,1796.08 C643.81333,1797.06667 643.373335,1798.13333 643.08,1799.28 C642.786665,1800.42667 642.64,1801.58666 642.64,1802.76 L642.64,1811.32 Z" id="“" sketch:type="MSShapeGroup"></path>
        </g>
    </g>
</svg>