<?xml version="1.0" encoding="UTF-8" standalone="no"?>
<svg width="20px" height="21px" viewBox="0 0 20 21" version="1.1" xmlns="http://www.w3.org/2000/svg" xmlns:xlink="http://www.w3.org/1999/xlink" xmlns:sketch="http://www.bohemiancoding.com/sketch/ns">
    <!-- Generator: Sketch 3.3.3 (12072) - http://www.bohemiancoding.com/sketch -->
    <title>“ copy 4</title>
    <desc>Created with Sketch.</desc>
    <defs></defs>
    <g id="Page-1" stroke="none" stroke-width="1" fill="none" fill-rule="evenodd" sketch:type="MSPage">
        <g id="Artboard-1" sketch:type="MSArtboardGroup" transform="translate(-676.000000, -1791.000000)" fill="#798FA2">
            <path d="M676.56,1811.32 L683.28,1811.32 L683.28,1802.84 L679.92,1802.84 C679.866666,1802.2 679.906666,1801.49334 680.04,1800.72 C680.173334,1799.94666 680.399998,1799.2 680.72,1798.48 C681.040002,1797.76 681.439998,1797.12 681.92,1796.56 C682.400002,1796 682.986663,1795.58667 683.68,1795.32 L683.68,1791.88 C682.506661,1792.2 681.466671,1792.73333 680.56,1793.48 C679.653329,1794.22667 678.90667,1795.09333 678.32,1796.08 C677.73333,1797.06667 677.293335,1798.13333 677,1799.28 C676.706665,1800.42667 676.56,1801.58666 676.56,1802.76 L676.56,1811.32 Z M688.88,1811.32 L695.6,1811.32 L695.6,1802.84 L692.24,1802.84 C692.186666,1802.2 692.226666,1801.49334 692.36,1800.72 C692.493334,1799.94666 692.719998,1799.2 693.04,1798.48 C693.360002,1797.76 693.759998,1797.12 694.24,1796.56 C694.720002,1796 695.306663,1795.58667 696,1795.32 L696,1791.88 C694.826661,1792.2 693.786671,1792.73333 692.88,1793.48 C691.973329,1794.22667 691.22667,1795.09333 690.64,1796.08 C690.05333,1797.06667 689.613335,1798.13333 689.32,1799.28 C689.026665,1800.42667 688.88,1801.58666 688.88,1802.76 L688.88,1811.32 Z" id="“-copy-4" sketch:type="MSShapeGroup" transform="translate(686.280000, 1801.600000) rotate(-180.000000) translate(-686.280000, -1801.600000) "></path>
        </g>
    </g>
</svg>